<?xml version="1.0" encoding="UTF-8" standalone="no"?>
<!DOCTYPE svg PUBLIC "-//W3C//DTD SVG 1.1//EN"
 "http://www.w3.org/Graphics/SVG/1.1/DTD/svg11.dtd">
<!-- Generated by graphviz version 2.40.1 (20161225.0304)
 -->
<!-- Title: git&#45;storage Pages: 1 -->
<svg width="326pt" height="418pt"
 viewBox="0.00 0.00 326.20 417.69" xmlns="http://www.w3.org/2000/svg" xmlns:xlink="http://www.w3.org/1999/xlink">
<g id="graph0" class="graph" transform="scale(1 1) rotate(0) translate(4 413.6934)">
<title>git&#45;storage</title>
<polygon fill="#ffffff" stroke="transparent" points="-4,4 -4,-413.6934 322.2046,-413.6934 322.2046,4 -4,4"/>
<!-- blob -->
<g id="node1" class="node">
<title>blob</title>
<ellipse fill="none" stroke="#000000" cx="148.2046" cy="-18" rx="27" ry="18"/>
<text text-anchor="middle" x="148.2046" y="-14.3" font-family="Times,serif" font-size="14.00" fill="#000000">blob</text>
</g>
<!-- tree -->
<g id="node2" class="node">
<title>tree</title>
<ellipse fill="none" stroke="#000000" cx="148.2046" cy="-120" rx="27" ry="18"/>
<text text-anchor="middle" x="148.2046" y="-116.3" font-family="Times,serif" font-size="14.00" fill="#000000">tree</text>
</g>
<!-- tree&#45;&gt;blob -->
<g id="edge1" class="edge">
<title>tree&#45;&gt;blob</title>
<path fill="none" stroke="#000000" d="M148.2046,-101.7644C148.2046,-86.317 148.2046,-63.9149 148.2046,-46.164"/>
<polygon fill="#000000" stroke="#000000" points="151.7047,-46.0776 148.2046,-36.0777 144.7047,-46.0777 151.7047,-46.0776"/>
<text text-anchor="start" x="148.2046" y="-72.8" font-family="Times,serif" font-size="14.00" fill="#000000">+filename</text>
<text text-anchor="start" x="148.2046" y="-57.8" font-family="Times,serif" font-size="14.00" fill="#000000">+mode</text>
</g>
<!-- tree&#45;&gt;tree -->
<g id="edge2" class="edge">
<title>tree&#45;&gt;tree</title>
<path fill="none" stroke="#000000" d="M173.6481,-126.6907C184.2324,-127.1521 193.2046,-124.9219 193.2046,-120 193.2046,-116.77 189.3406,-114.6992 183.6927,-113.7876"/>
<polygon fill="#000000" stroke="#000000" points="183.8033,-110.289 173.6481,-113.3093 183.4702,-117.2811 183.8033,-110.289"/>
<text text-anchor="start" x="193.2046" y="-123.8" font-family="Times,serif" font-size="14.00" fill="#000000">subdir</text>
<text text-anchor="middle" x="221.7046" y="-108.8" font-family="Times,serif" font-size="14.00" fill="#000000">+filename</text>
</g>
<!-- commit -->
<g id="node3" class="node">
<title>commit</title>
<ellipse fill="none" stroke="#000000" cx="148.2046" cy="-201.8701" rx="50.41" ry="26.7407"/>
<text text-anchor="start" x="120.7046" y="-205.6701" font-family="Times,serif" font-size="14.00" fill="#000000">commit</text>
<text text-anchor="start" x="120.7046" y="-190.6701" font-family="Times,serif" font-size="14.00" fill="#000000">&#45; message</text>
</g>
<!-- commit&#45;&gt;tree -->
<g id="edge3" class="edge">
<title>commit&#45;&gt;tree</title>
<path fill="none" stroke="#000000" d="M148.2046,-174.6085C148.2046,-166.2357 148.2046,-157.0006 148.2046,-148.5444"/>
<polygon fill="#000000" stroke="#000000" points="151.7047,-148.3732 148.2046,-138.3732 144.7047,-148.3733 151.7047,-148.3732"/>
</g>
<!-- commit&#45;&gt;commit -->
<g id="edge4" class="edge">
<title>commit&#45;&gt;commit</title>
<path fill="none" stroke="#000000" d="M196.3236,-209.9745C207.8607,-209.3411 216.4092,-206.6396 216.4092,-201.8701 216.4092,-198.6655 212.5502,-196.3945 206.5187,-195.0571"/>
<polygon fill="#000000" stroke="#000000" points="206.6842,-191.5502 196.3236,-193.7656 205.8044,-198.4947 206.6842,-191.5502"/>
<text text-anchor="middle" x="236.4092" y="-198.1701" font-family="Times,serif" font-size="14.00" fill="#000000">parents</text>
</g>
<!-- tag -->
<g id="node4" class="node">
<title>tag</title>
<ellipse fill="none" stroke="#000000" cx="50.2046" cy="-303.2168" rx="50.41" ry="37.4533"/>
<text text-anchor="start" x="22.7046" y="-314.5168" font-family="Times,serif" font-size="14.00" fill="#000000">tag</text>
<text text-anchor="start" x="22.7046" y="-299.5168" font-family="Times,serif" font-size="14.00" fill="#000000">&#45; name</text>
<text text-anchor="start" x="22.7046" y="-284.5168" font-family="Times,serif" font-size="14.00" fill="#000000">&#45; message</text>
</g>
<!-- tag&#45;&gt;commit -->
<g id="edge5" class="edge">
<title>tag&#45;&gt;commit</title>
<path fill="none" stroke="#000000" d="M79.6078,-272.8094C91.7674,-260.2346 105.8546,-245.6663 118.0879,-233.0153"/>
<polygon fill="#000000" stroke="#000000" points="120.6125,-235.4394 125.0478,-225.8176 115.5804,-230.5734 120.6125,-235.4394"/>
</g>
<!-- branchname -->
<g id="node5" class="node">
<title>branchname</title>
<polygon fill="#ffff00" stroke="#000000" points="177.7046,-312.2168 118.7046,-312.2168 118.7046,-294.2168 177.7046,-294.2168 177.7046,-312.2168"/>
<text text-anchor="middle" x="148.2046" y="-301.0168" font-family="Times,serif" font-size="9.00" fill="#000000">branchname</text>
</g>
<!-- branchname&#45;&gt;commit -->
<g id="edge6" class="edge">
<title>branchname&#45;&gt;commit</title>
<path fill="none" stroke="#000000" d="M148.2046,-293.864C148.2046,-281.4859 148.2046,-258.9296 148.2046,-239.2512"/>
<polygon fill="#000000" stroke="#000000" points="151.7047,-238.9958 148.2046,-228.9958 144.7047,-238.9959 151.7047,-238.9958"/>
</g>
<!-- HEAD -->
<g id="node6" class="node">
<title>HEAD</title>
<polygon fill="#ffff00" stroke="#000000" points="175.2046,-409.6934 121.2046,-409.6934 121.2046,-391.6934 175.2046,-391.6934 175.2046,-409.6934"/>
<text text-anchor="middle" x="148.2046" y="-398.4934" font-family="Times,serif" font-size="9.00" fill="#000000">HEAD</text>
</g>
<!-- HEAD&#45;&gt;branchname -->
<g id="edge7" class="edge">
<title>HEAD&#45;&gt;branchname</title>
<path fill="none" stroke="#000000" stroke-dasharray="1,5" d="M148.2046,-391.347C148.2046,-375.5862 148.2046,-343.4105 148.2046,-322.605"/>
<polygon fill="#000000" stroke="#000000" points="151.7047,-322.3926 148.2046,-312.3926 144.7047,-322.3927 151.7047,-322.3926"/>
<text text-anchor="middle" x="157.7046" y="-362.4934" font-family="Times,serif" font-size="14.00" fill="#000000">ref:</text>
</g>
<!-- remote -->
<g id="node7" class="node">
<title>remote</title>
<polygon fill="#add8e6" stroke="#000000" points="318.2046,-312.2168 196.2046,-312.2168 196.2046,-294.2168 318.2046,-294.2168 318.2046,-312.2168"/>
<text text-anchor="middle" x="257.2046" y="-301.0168" font-family="Times,serif" font-size="9.00" fill="#000000">remotes/MYSERVER/master</text>
</g>
<!-- remote&#45;&gt;commit -->
<g id="edge8" class="edge">
<title>remote&#45;&gt;commit</title>
<path fill="none" stroke="#000000" d="M247.1455,-293.864C232.1828,-279.9519 203.392,-253.1826 180.7092,-232.0924"/>
<polygon fill="#000000" stroke="#000000" points="182.9866,-229.4307 173.2798,-225.1846 178.22,-234.5572 182.9866,-229.4307"/>
</g>
<!-- tagname -->
<g id="node8" class="node">
<title>tagname</title>
<polygon fill="#ff8c00" stroke="#000000" points="77.2046,-409.6934 23.2046,-409.6934 23.2046,-391.6934 77.2046,-391.6934 77.2046,-409.6934"/>
<text text-anchor="middle" x="50.2046" y="-398.4934" font-family="Times,serif" font-size="9.00" fill="#000000">tagname</text>
</g>
<!-- tagname&#45;&gt;tag -->
<g id="edge9" class="edge">
<title>tagname&#45;&gt;tag</title>
<path fill="none" stroke="#000000" d="M50.2046,-391.347C50.2046,-381.8092 50.2046,-366.26 50.2046,-350.8571"/>
<polygon fill="#000000" stroke="#000000" points="53.7047,-350.821 50.2046,-340.821 46.7047,-350.821 53.7047,-350.821"/>
</g>
</g>
</svg>
